# Blender 3.1.0
# www.blender.org
mtllib untitled.mtl
o Fern_Plant_Preview__FREE_Model
v 1.430493 2.727094 0.053485
v 1.567087 2.911384 0.468961
v 1.795429 2.715879 0.203485
v 0.363120 2.207825 -2.055652
v 0.279590 2.259319 -1.913943
v 0.516263 2.361940 -1.597058
v 0.480365 2.246506 -1.933926
v -0.029636 2.437861 -1.364444
v 0.530456 2.550241 -1.009738
v -0.240482 2.517481 -0.981732
v 0.416855 2.699038 -0.415002
v 1.051013 2.726943 -0.119748
v 1.356952 3.150565 0.912314
v 1.173102 3.194977 1.046802
v 2.327204 3.062583 2.864936
v 0.753735 2.873815 3.611249
v 2.053943 2.561924 3.569882
v 2.391321 2.702800 3.242371
v -0.960242 2.262545 -1.677820
v -2.201743 2.623990 -1.473129
v -2.112970 2.626545 -1.294699
v -0.881827 2.318929 -1.519662
v 2.482764 2.364114 3.599558
v 2.261139 3.360866 2.265174
v 0.491425 2.887226 3.533890
v 1.669662 3.391670 1.502088
v -0.456293 2.585061 3.580746
v -0.034201 2.725823 3.770428
v 0.385031 2.817038 3.681742
v -1.057208 1.820180 0.941306
v -0.736798 1.948069 1.609012
v -0.955493 2.306891 3.233441
v 1.265341 3.282265 1.225806
v -1.083188 2.227451 3.089951
v -1.297617 2.067421 2.730811
v -1.350961 1.935010 2.407190
v -1.734497 2.208080 -2.101553
v -2.353451 2.550448 -1.794943
v -2.266672 2.270004 -2.257953
v -2.474301 2.412502 -2.074673
v -2.616208 2.053083 -2.461572
v -3.890952 2.199459 0.257797
v -3.542352 2.175378 0.335550
v -3.326703 2.211746 -0.735937
v -3.914279 2.179231 -0.450067
v -4.651273 1.813517 0.042914
v -2.234732 2.095524 2.618829
v -3.763513 1.983710 1.664292
v -3.020133 2.105736 2.789862
v -1.606097 1.603196 1.310364
v -1.832257 1.975674 2.372885
v -3.987320 1.841249 2.019684
v -3.846817 1.686401 2.739786
v -4.046884 1.638128 2.438538
v -4.128641 1.423991 2.725321
v -3.304349 2.239789 -1.014337
v 0.132092 2.178313 -2.121628
v -0.636365 2.225845 -1.757422
v 1.399478 2.727269 0.041248
v -3.065567 1.998226 4.417480
v -3.575168 2.186397 4.084564
v -3.570908 1.888133 4.532776
v -0.171060 1.681787 5.859027
v -0.202579 1.762055 5.644302
v -0.724963 1.823845 5.488745
v -0.399829 1.698258 5.819464
v -0.335764 2.041906 4.820951
v -1.236917 2.037264 4.873685
v -0.423270 2.176693 4.246762
v -1.608435 2.228672 4.148459
v -2.524060 2.098048 4.315375
v -3.746396 2.528345 3.459525
v -3.662994 2.623622 3.174857
v -6.278324 2.074911 2.057483
v -5.123035 2.161335 0.011066
v -6.416815 1.441267 1.027313
v -6.557718 1.564307 1.659165
v 0.945535 2.049760 4.431891
v 2.038791 2.812385 3.286472
v 1.804904 2.784907 3.159442
v 0.726291 2.096903 4.324197
v -6.855557 1.076119 1.306043
v -5.811023 2.516815 2.692194
v -4.784558 2.245883 -0.104691
v -4.592752 2.740012 3.076438
v -3.734769 2.070928 -0.913721
v -4.366535 2.145636 -0.783591
v -4.768772 2.170668 -0.355228
v -0.875607 1.347512 1.444782
v -1.764899 1.403693 0.971509
v -2.867255 1.841790 -0.943381
v -3.920200 2.707128 3.057858
v -2.601215 1.775193 -0.891843
v -2.057065 1.634597 -0.678281
v -1.719611 1.490056 -0.377106
v 2.116962 2.185739 4.295508
v 2.467172 2.768948 3.515546
v 2.795395 2.403066 4.063336
v 2.844431 2.630854 3.716156
v 3.377234 2.211253 3.997116
v 2.610291 2.562067 0.049542
v 2.181259 2.442797 0.230246
v 2.769995 2.497177 1.574030
v 3.187277 2.579190 0.805557
v 3.680171 2.245904 -0.336328
v -0.970487 1.901623 -1.273880
v 1.434622 2.170849 -1.414395
v -0.261618 2.093499 -2.064655
v -0.522501 1.172300 0.597482
v -1.185422 1.660566 -0.705966
v 1.432349 2.017076 -1.989572
v 0.759638 1.740211 -2.685373
v 1.218338 1.740566 -2.513663
v 1.132782 1.461957 -2.911118
v 2.954929 2.543895 1.899027
v 0.134723 1.701594 5.750809
v 0.667584 1.928243 4.764862
v -3.022827 2.006528 4.407041
v -4.857385 0.829071 -3.808517
v -4.191031 1.228462 -4.431494
v -4.812061 0.694403 -4.624444
v -8.103110 -0.201253 -0.041345
v -7.782709 -0.039370 0.002634
v -7.354898 0.137284 -0.719058
v -7.956741 -0.144836 -0.369568
v -6.544244 0.539360 0.150876
v -6.268408 0.620744 -1.230411
v -5.671774 0.848725 0.258527
v -5.067673 1.072388 -1.486914
v -4.934894 0.941832 -2.943985
v -3.246674 1.876230 -4.416534
v -2.869098 2.060104 -4.170050
v -0.063858 1.667066 -7.701447
v 2.540027 2.000719 -5.128989
v 1.652185 0.862073 -7.536029
v 0.736365 0.968099 -7.995139
v -6.464954 0.475298 2.241351
v -5.311969 1.721969 4.400495
v -5.024286 1.724606 4.096973
v -6.225540 0.589053 1.956873
v 1.471912 0.298731 -8.333450
v -1.280585 2.201846 -7.223733
v 2.565582 2.113783 -4.566293
v -2.376828 2.356230 -5.525959
v 3.399637 1.857508 -2.667716
v 3.439032 2.020755 -3.668622
v 2.949243 2.035060 -4.446399
v -1.135950 0.054564 0.651166
v -0.085718 0.312261 -0.496625
v 3.144550 1.413450 -1.361343
v -2.607349 2.235820 -4.505741
v 2.974594 1.273374 -0.984891
v 2.465329 0.962955 -0.258716
v 1.906433 0.654781 0.120056
v -6.745099 0.581817 4.072464
v -5.816559 1.572262 4.951926
v -6.702280 0.882708 5.203427
v -6.241226 1.285723 5.431644
v -6.796909 0.533061 6.095834
v -0.629773 1.784457 6.549884
v -0.711020 1.616993 5.822196
v -2.970511 1.425367 6.173096
v -1.995136 1.629316 7.117276
v -0.413696 1.240010 8.299476
v 2.884586 1.354551 1.637555
v 2.101685 1.535723 5.340314
v 3.759017 1.701090 3.037671
v 0.029471 -0.121120 1.513892
v 2.159610 0.913865 1.069309
v 2.994205 1.388456 5.558637
v 4.353644 1.141448 4.806061
v 3.915384 1.065488 5.429099
v 4.596243 0.705406 5.442276
v -3.539749 1.426513 6.324286
v -8.064346 -0.186294 0.464871
v -6.833869 0.264002 1.680188
v -4.860007 0.839005 -3.739307
vn 0.0209 0.0866 -0.0454
vn 0.0163 0.0892 -0.0422
vn 0.0213 0.0865 -0.0454
vn 0.0013 0.0942 -0.0334
vn -0.0055 0.0942 -0.0331
vn 0.0003 0.0952 -0.0307
vn 0.0028 0.0945 -0.0327
vn -0.0055 0.0952 -0.0301
vn -0.0036 0.0965 -0.0260
vn -0.0205 0.0975 0.0081
vn -0.0445 0.0895 0.0013
vn 0.0100 0.0918 -0.0384
vn 0.0100 0.0918 -0.0383
vn -0.0431 0.0899 -0.0079
vn 0.0118 0.0867 0.0485
vn 0.0083 0.0897 0.0435
vn 0.0223 0.0752 0.0620
vn 0.0213 0.0915 -0.0343
vn 0.0007 0.0973 -0.0231
vn -0.0007 0.0980 0.0200
vn 0.0026 0.0991 0.0134
vn 0.0294 0.0730 0.0617
vn -0.0083 0.0968 0.0237
vn -0.0299 0.0953 0.0055
vn -0.0288 0.0955 0.0071
vn -0.0368 0.0930 -0.0016
vn -0.0271 0.0961 0.0053
vn -0.0167 0.0969 0.0183
vn -0.0577 0.0788 -0.0213
vn -0.0368 0.0930 0.0013
vn -0.0422 0.0906 -0.0030
vn -0.0430 0.0902 -0.0043
vn -0.0501 0.0851 -0.0161
vn -0.0553 0.0773 -0.0310
vn 0.0218 0.0877 -0.0428
vn -0.0014 0.0938 -0.0347
vn 0.0159 0.0839 -0.0520
vn -0.0356 0.0828 -0.0434
vn -0.0581 0.0691 -0.0429
vn -0.0288 0.0953 0.0099
vn 0.0037 0.0969 0.0245
vn -0.0029 0.0972 0.0234
vn -0.0136 0.0991 0.0003
vn -0.0476 0.0872 0.0117
vn 0.0070 0.0972 -0.0226
vn -0.0000 0.0985 0.0170
vn -0.0167 0.0986 0.0018
vn 0.0135 0.0976 0.0173
vn 0.0115 0.0946 -0.0303
vn -0.0415 0.0884 0.0214
vn -0.0432 0.0874 0.0222
vn -0.0617 0.0730 0.0293
vn -0.0653 0.0684 0.0324
vn -0.0361 0.0933 -0.0003
vn -0.0091 0.0936 -0.0341
vn -0.0082 0.0941 -0.0327
vn 0.0207 0.0867 -0.0454
vn -0.0051 0.0833 0.0551
vn -0.0038 0.0865 0.0500
vn -0.0055 0.0831 0.0554
vn 0.0023 0.0938 0.0347
vn 0.0076 0.0949 0.0305
vn 0.0015 0.0948 0.0319
vn 0.0007 0.0937 0.0349
vn 0.0057 0.0958 0.0281
vn 0.0016 0.0966 0.0260
vn -0.0046 0.0992 -0.0115
vn 0.0198 0.0959 -0.0203
vn -0.0014 0.0900 0.0435
vn -0.0014 0.0901 0.0435
vn 0.0239 0.0964 -0.0119
vn -0.0519 0.0812 -0.0267
vn -0.0468 0.0849 -0.0244
vn -0.0662 0.0675 -0.0325
vn -0.0127 0.0875 0.0466
vn -0.0036 0.0965 0.0261
vn -0.0275 0.0956 -0.0099
vn -0.0265 0.0964 -0.0024
vn -0.0713 0.0641 -0.0284
vn -0.0233 0.0957 -0.0173
vn 0.0047 0.0988 -0.0149
vn 0.0029 0.0987 -0.0156
vn 0.0147 0.0980 -0.0132
vn 0.0025 0.0991 -0.0131
vn -0.0135 0.0975 -0.0177
vn 0.0452 0.0886 -0.0101
vn 0.0130 0.0979 -0.0156
vn 0.0202 0.0967 -0.0153
vn 0.0217 0.0965 -0.0148
vn 0.0350 0.0932 -0.0095
vn 0.0491 0.0871 -0.0009
vn -0.0075 0.0841 0.0536
vn 0.0054 0.0939 0.0341
vn 0.0031 0.0818 0.0575
vn 0.0396 0.0895 0.0208
vn 0.0596 0.0800 0.0066
vn 0.0013 0.0984 -0.0178
vn -0.0333 0.0936 -0.0111
vn -0.0275 0.0951 -0.0139
vn -0.0060 0.0998 -0.0011
vn 0.0166 0.0937 -0.0307
vn -0.0089 0.0952 0.0293
vn -0.0264 0.0962 -0.0069
vn -0.0043 0.0998 -0.0041
vn -0.0371 0.0928 0.0005
vn -0.0077 0.0922 0.0380
vn 0.0060 0.0934 -0.0351
vn 0.0071 0.0927 -0.0367
vn 0.0202 0.0816 -0.0541
vn 0.0221 0.0776 -0.0591
vn 0.0133 0.0981 -0.0139
vn 0.0111 0.0950 0.0292
vn 0.0095 0.0953 0.0286
vn -0.0050 0.0833 0.0550
vn -0.0613 0.0774 -0.0158
vn -0.0571 0.0810 -0.0130
vn -0.0614 0.0772 -0.0162
vn -0.0448 0.0894 -0.0029
vn -0.0422 0.0906 0.0034
vn -0.0420 0.0907 -0.0029
vn -0.0445 0.0894 -0.0045
vn -0.0395 0.0918 0.0021
vn -0.0365 0.0931 -0.0012
vn 0.0007 0.1000 0.0025
vn 0.0034 0.0959 0.0282
vn -0.0519 0.0850 -0.0089
vn -0.0518 0.0851 -0.0089
vn -0.0057 0.0952 0.0301
vn 0.0293 0.0868 -0.0400
vn 0.0254 0.0900 -0.0354
vn 0.0401 0.0748 -0.0528
vn -0.0517 0.0830 -0.0207
vn -0.0353 0.0933 -0.0063
vn 0.0054 0.0978 -0.0201
vn -0.0021 0.0977 -0.0210
vn 0.0378 0.0714 -0.0590
vn 0.0114 0.0983 -0.0142
vn 0.0017 0.0992 0.0124
vn 0.0029 0.0994 0.0108
vn -0.0023 0.0976 0.0216
vn 0.0005 0.0995 0.0098
vn 0.0091 0.0995 -0.0045
vn -0.0119 0.0859 0.0498
vn 0.0004 0.0979 0.0206
vn -0.0016 0.0962 0.0274
vn -0.0024 0.0958 0.0287
vn -0.0104 0.0910 0.0400
vn -0.0215 0.0832 0.0512
vn -0.0593 0.0786 -0.0176
vn -0.0450 0.0893 0.0002
vn -0.0655 0.0751 -0.0085
vn -0.0403 0.0840 0.0365
vn -0.0305 0.0747 0.0591
vn 0.0055 0.0994 0.0098
vn 0.0082 0.0963 -0.0255
vn 0.0093 0.0977 -0.0191
vn -0.0090 0.0996 -0.0014
vn 0.0145 0.0950 0.0278
vn -0.0369 0.0921 -0.0123
vn 0.0022 0.0980 -0.0198
vn -0.0065 0.0998 0.0010
vn -0.0019 0.0947 -0.0322
vn -0.0452 0.0882 -0.0135
vn 0.0214 0.0959 0.0186
vn 0.0228 0.0953 0.0200
vn 0.0375 0.0851 0.0368
vn 0.0423 0.0815 0.0397
vn -0.0013 0.0979 0.0204
vn -0.0418 0.0906 0.0071
vn -0.0409 0.0911 0.0057
vn -0.0613 0.0775 -0.0156
vt 0.956560 0.733743
vt 0.952718 0.706833
vt 0.977744 0.716843
vt 0.947494 0.899162
vt 0.938226 0.889940
vt 0.946712 0.860363
vt 0.952969 0.886889
vt 0.901363 0.853263
vt 0.930196 0.817695
vt 0.875318 0.827350
vt 0.905170 0.780657
vt 0.937077 0.751628
vt 0.926066 0.687063
vt 0.910801 0.683434
vt 0.950466 0.536411
vt 0.825590 0.520020
vt 0.917182 0.476601
vt 0.948089 0.495620
vt 0.841766 0.892801
vt 0.756101 0.896102
vt 0.757407 0.879343
vt 0.843100 0.877745
vt 0.946087 0.457457
vt 0.955221 0.586712
vt 0.809574 0.533659
vt 0.930696 0.648399
vt 0.746135 0.549299
vt 0.769283 0.526777
vt 0.799064 0.524024
vt 0.769659 0.722224
vt 0.773037 0.681307
vt 0.722236 0.583208
vt 0.911677 0.672048
vt 0.717527 0.595529
vt 0.712101 0.623499
vt 0.715229 0.645146
vt 0.799647 0.945593
vt 0.753555 0.928748
vt 0.768391 0.971893
vt 0.751210 0.958821
vt 0.747999 1.000000
vt 0.610028 0.836394
vt 0.631961 0.820707
vt 0.665838 0.881051
vt 0.620906 0.883093
vt 0.550445 0.879008
vt 0.659772 0.647606
vt 0.588228 0.742808
vt 0.603935 0.649423
vt 0.722486 0.713465
vt 0.688202 0.655656
vt 0.560106 0.726234
vt 0.535632 0.676798
vt 0.533022 0.702903
vt 0.507895 0.689198
vt 0.672987 0.899305
vt 0.932483 0.909954
vt 0.867304 0.895279
vt 0.954845 0.735111
vt 0.956560 0.733743
vt 0.952718 0.706833
vt 0.977744 0.716843
vt 0.947494 0.899162
vt 0.938226 0.889940
vt 0.946712 0.860363
vt 0.952969 0.886889
vt 0.901363 0.853263
vt 0.930196 0.817695
vt 0.875318 0.827350
vt 0.905170 0.780657
vt 0.937077 0.751628
vt 0.926066 0.687063
vt 0.910801 0.683434
vt 0.950466 0.536411
vt 0.825590 0.520020
vt 0.917182 0.476601
vt 0.948089 0.495620
vt 0.841766 0.892801
vt 0.756101 0.896102
vt 0.757407 0.879343
vt 0.843100 0.877745
vt 0.946087 0.457457
vt 0.955221 0.586712
vt 0.809574 0.533659
vt 0.930696 0.648399
vt 0.746135 0.549299
vt 0.769283 0.526777
vt 0.799064 0.524024
vt 0.769659 0.722224
vt 0.773037 0.681307
vt 0.722236 0.583208
vt 0.911677 0.672048
vt 0.717527 0.595529
vt 0.712101 0.623499
vt 0.715229 0.645146
vt 0.799647 0.945593
vt 0.753555 0.928748
vt 0.768391 0.971893
vt 0.751210 0.958821
vt 0.747999 1.000000
vt 0.610028 0.836394
vt 0.631961 0.820707
vt 0.665838 0.881051
vt 0.620906 0.883093
vt 0.550445 0.879008
vt 0.659772 0.647606
vt 0.588228 0.742808
vt 0.603935 0.649423
vt 0.722486 0.713465
vt 0.688202 0.655656
vt 0.560106 0.726234
vt 0.535632 0.676798
vt 0.533022 0.702903
vt 0.507895 0.689198
vt 0.672987 0.899305
vt 0.932483 0.909954
vt 0.867304 0.895279
vt 0.954845 0.735111
vt 0.956560 0.733743
vt 0.952718 0.706833
vt 0.977744 0.716843
vt 0.947494 0.899162
vt 0.938226 0.889940
vt 0.946712 0.860363
vt 0.952969 0.886889
vt 0.901363 0.853263
vt 0.930196 0.817695
vt 0.875318 0.827350
vt 0.905170 0.780657
vt 0.937077 0.751628
vt 0.926066 0.687063
vt 0.910801 0.683434
vt 0.950466 0.536411
vt 0.825590 0.520020
vt 0.917182 0.476601
vt 0.948089 0.495620
vt 0.841766 0.892801
vt 0.756101 0.896102
vt 0.757407 0.879343
vt 0.843100 0.877745
vt 0.946087 0.457457
vt 0.955221 0.586712
vt 0.809574 0.533659
vt 0.930696 0.648399
vt 0.746135 0.549299
vt 0.769283 0.526777
vt 0.799064 0.524024
vt 0.769659 0.722224
vt 0.773037 0.681307
vt 0.722236 0.583208
vt 0.911677 0.672048
vt 0.717527 0.595529
vt 0.712101 0.623499
vt 0.715229 0.645146
vt 0.799647 0.945593
vt 0.753555 0.928748
vt 0.768391 0.971893
vt 0.751210 0.958821
vt 0.747999 1.000000
vt 0.610028 0.836394
vt 0.631961 0.820707
vt 0.665838 0.881051
vt 0.620906 0.883093
vt 0.550445 0.879008
vt 0.659772 0.647606
vt 0.588228 0.742808
vt 0.603935 0.649423
vt 0.722486 0.713465
vt 0.688202 0.655656
vt 0.560106 0.726234
vt 0.535632 0.676798
vt 0.533022 0.702903
vt 0.507895 0.689198
vt 0.672987 0.899305
vt 0.932483 0.909954
vt 0.867304 0.895279
vt 0.954845 0.735111
s 1
usemtl initialShadingGroup
f 1/1/1 2/2/2 3/3/3
f 4/4/4 5/5/5 6/6/6 7/7/7
f 5/5/5 8/8/8 9/9/9 6/6/6
f 8/8/8 10/10/10 11/11/11 9/9/9
f 12/12/12 13/13/13 2/2/2
f 11/11/11 14/14/14 13/13/13 12/12/12
f 15/15/15 16/16/16 17/17/17 18/18/17
f 19/19/18 20/20/19 21/21/20 22/22/21
f 18/18/17 17/17/17 23/23/22
f 24/24/23 25/25/24 16/16/16 15/15/15
f 26/26/25 25/25/24 24/24/23
f 25/25/24 27/27/26 28/28/27 29/29/27
f 14/14/14 30/30/28 31/31/29
f 26/26/25 32/32/30 27/27/26 25/25/24
f 33/33/31 34/34/32 32/32/30 26/26/25
f 14/14/14 35/35/33 34/34/32 33/33/31
f 14/14/14 36/36/34 35/35/33
f 14/14/14 31/31/29 36/36/34
f 10/10/10 30/30/28 14/14/14 11/11/11
f 37/37/35 38/38/36 20/20/19 19/19/18
f 39/39/37 40/40/38 38/38/36 37/37/35
f 41/41/39 40/40/38 39/39/37
f 42/42/40 43/43/41 44/44/42 45/45/43
f 46/46/44 42/42/40 45/45/43
f 47/47/45 48/48/46 49/49/47
f 50/50/48 48/48/46 51/51/49
f 51/51/49 48/48/46 47/47/45
f 49/49/47 48/48/46 52/52/50 53/53/51
f 53/53/51 52/52/50 54/54/52
f 53/53/51 54/54/52 55/55/53
f 41/41/39 56/56/54 40/40/38
f 38/38/36 40/40/38 56/56/54
f 20/20/19 38/38/36 56/56/54
f 21/21/20 20/20/19 56/56/54 44/44/42
f 30/30/28 21/21/20 44/44/42 43/43/41
f 57/57/55 5/5/5 4/4/4
f 58/58/56 8/8/8 5/5/5 57/57/55
f 22/22/21 10/10/10 8/8/8 58/58/56
f 22/22/21 21/21/20 30/30/28 10/10/10
f 48/48/46 42/42/40 46/46/44
f 48/48/46 43/43/41 42/42/40
f 30/30/28 43/43/41 48/48/46 50/50/48
f 12/12/12 2/2/2 1/1/1 59/59/57
f 60/60/58 61/61/59 62/62/60
f 63/63/61 64/64/62 65/65/63 66/66/64
f 64/64/62 67/67/65 68/68/66 65/65/63
f 67/67/65 69/69/67 70/70/68 68/68/66
f 71/71/69 72/72/70 61/61/59
f 70/70/68 73/73/71 72/72/70 71/71/69
f 74/74/72 75/75/73 76/76/74 77/77/74
f 78/78/75 79/79/76 80/80/77 81/81/78
f 77/77/74 76/76/74 82/82/79
f 83/83/80 84/84/81 75/75/73 74/74/72
f 85/85/82 84/84/81 83/83/80
f 84/84/81 86/86/83 87/87/84 88/88/84
f 73/73/71 89/89/85 90/90/86
f 85/85/82 91/91/87 86/86/83 84/84/81
f 92/92/88 93/93/89 91/91/87 85/85/82
f 73/73/71 94/94/90 93/93/89 92/92/88
f 73/73/71 95/95/91 94/94/90
f 73/73/71 90/90/86 95/95/91
f 69/69/67 89/89/85 73/73/71 70/70/68
f 96/96/92 97/97/93 79/79/76 78/78/75
f 98/98/94 99/99/95 97/97/93 96/96/92
f 100/100/96 99/99/95 98/98/94
f 101/101/97 102/102/98 103/103/99 104/104/100
f 105/105/101 101/101/97 104/104/100
f 106/106/102 107/107/103 108/108/104
f 109/109/105 107/107/103 110/110/106
f 110/110/106 107/107/103 106/106/102
f 108/108/104 107/107/103 111/111/107 112/112/108
f 112/112/108 111/111/107 113/113/109
f 112/112/108 113/113/109 114/114/110
f 100/100/96 115/115/111 99/99/95
f 97/97/93 99/99/95 115/115/111
f 79/79/76 97/97/93 115/115/111
f 80/80/77 79/79/76 115/115/111 103/103/99
f 89/89/85 80/80/77 103/103/99 102/102/98
f 116/116/112 64/64/62 63/63/61
f 117/117/113 67/67/65 64/64/62 116/116/112
f 81/81/78 69/69/67 67/67/65 117/117/113
f 81/81/78 80/80/77 89/89/85 69/69/67
f 107/107/103 101/101/97 105/105/101
f 107/107/103 102/102/98 101/101/97
f 89/89/85 102/102/98 107/107/103 109/109/105
f 71/71/69 61/61/59 60/60/58 118/118/114
f 119/119/115 120/120/116 121/121/117
f 122/122/118 123/123/119 124/124/120 125/125/121
f 123/123/119 126/126/122 127/127/123 124/124/120
f 126/126/122 128/128/124 129/129/125 127/127/123
f 130/130/126 131/131/127 120/120/116
f 129/129/125 132/132/128 131/131/127 130/130/126
f 133/133/129 134/134/130 135/135/131 136/136/131
f 137/137/132 138/138/133 139/139/134 140/140/135
f 136/136/131 135/135/131 141/141/136
f 142/142/137 143/143/138 134/134/130 133/133/129
f 144/144/139 143/143/138 142/142/137
f 143/143/138 145/145/140 146/146/141 147/147/141
f 132/132/128 148/148/142 149/149/143
f 144/144/139 150/150/144 145/145/140 143/143/138
f 151/151/145 152/152/146 150/150/144 144/144/139
f 132/132/128 153/153/147 152/152/146 151/151/145
f 132/132/128 154/154/148 153/153/147
f 132/132/128 149/149/143 154/154/148
f 128/128/124 148/148/142 132/132/128 129/129/125
f 155/155/149 156/156/150 138/138/133 137/137/132
f 157/157/151 158/158/152 156/156/150 155/155/149
f 159/159/153 158/158/152 157/157/151
f 160/160/154 161/161/155 162/162/156 163/163/157
f 164/164/158 160/160/154 163/163/157
f 165/165/159 166/166/160 167/167/161
f 168/168/162 166/166/160 169/169/163
f 169/169/163 166/166/160 165/165/159
f 167/167/161 166/166/160 170/170/164 171/171/165
f 171/171/165 170/170/164 172/172/166
f 171/171/165 172/172/166 173/173/167
f 159/159/153 174/174/168 158/158/152
f 156/156/150 158/158/152 174/174/168
f 138/138/133 156/156/150 174/174/168
f 139/139/134 138/138/133 174/174/168 162/162/156
f 148/148/142 139/139/134 162/162/156 161/161/155
f 175/175/169 123/123/119 122/122/118
f 176/176/170 126/126/122 123/123/119 175/175/169
f 140/140/135 128/128/124 126/126/122 176/176/170
f 140/140/135 139/139/134 148/148/142 128/128/124
f 166/166/160 160/160/154 164/164/158
f 166/166/160 161/161/155 160/160/154
f 148/148/142 161/161/155 166/166/160 168/168/162
f 130/130/126 120/120/116 119/119/115 177/177/171
