# Blender 3.1.0
# www.blender.org
mtllib untitled.mtl
o Plane.002__0.001
v -5.430909 -0.007179 -0.036166
v -5.430909 -0.007179 -2.730162
v -1.841074 -0.007179 -2.730162
v -1.841074 -0.007179 -0.036166
v -5.430909 0.087237 -0.036166
v -1.841074 0.087237 -0.036166
v -1.841074 0.087237 -2.730162
v -5.430909 0.087237 -2.730162
v -1.841074 -0.007179 -2.730162
v -5.430909 -0.007179 -2.730162
v -5.430909 0.087237 -2.730162
v -1.841074 0.087237 -2.730162
v -5.430909 -0.007179 -0.036166
v -1.841074 -0.007179 -0.036166
v -1.841074 0.087237 -0.036166
v -5.430909 0.087237 -0.036166
v -1.841074 -0.007179 -0.036166
v -1.841074 -0.007179 -2.730162
v -1.841074 0.087237 -2.730162
v -1.841074 0.087237 -0.036166
v -5.430909 -0.007179 -2.730162
v -5.430909 -0.007179 -0.036166
v -5.430909 0.087237 -0.036166
v -5.430909 0.087237 -2.730162
v -1.841074 -0.007179 -0.036166
v -1.841074 -0.007179 -2.730162
v 1.748761 -0.007179 -2.730162
v 1.748761 -0.007179 -0.036166
v -1.841074 0.087237 -0.036166
v 1.748761 0.087237 -0.036166
v 1.748761 0.087237 -2.730162
v -1.841074 0.087237 -2.730162
v 1.748761 -0.007179 -2.730162
v -1.841074 -0.007179 -2.730162
v -1.841074 0.087237 -2.730162
v 1.748761 0.087237 -2.730162
v -1.841074 -0.007179 -0.036166
v 1.748761 -0.007179 -0.036166
v 1.748761 0.087237 -0.036166
v -1.841074 0.087237 -0.036166
v 1.748761 -0.007179 -0.036166
v 1.748761 -0.007179 -2.730162
v 1.748761 0.087237 -2.730162
v 1.748761 0.087237 -0.036166
v -1.841074 -0.007179 -2.730162
v -1.841074 -0.007179 -0.036166
v -1.841074 0.087237 -0.036166
v -1.841074 0.087237 -2.730162
v 1.748761 -0.007179 -0.036166
v 1.748761 -0.007179 -2.730162
v 5.338596 -0.007179 -2.730162
v 5.338596 -0.007179 -0.036166
v 1.748761 0.087237 -0.036166
v 5.338596 0.087237 -0.036166
v 5.338596 0.087237 -2.730162
v 1.748761 0.087237 -2.730162
v 5.338596 -0.007179 -2.730162
v 1.748761 -0.007179 -2.730162
v 1.748761 0.087237 -2.730162
v 5.338596 0.087237 -2.730162
v 1.748761 -0.007179 -0.036166
v 5.338596 -0.007179 -0.036166
v 5.338596 0.087237 -0.036166
v 1.748761 0.087237 -0.036166
v 5.338596 -0.007179 -0.036166
v 5.338596 -0.007179 -2.730162
v 5.338596 0.087237 -2.730162
v 5.338596 0.087237 -0.036166
v 1.748761 -0.007179 -2.730162
v 1.748761 -0.007179 -0.036166
v 1.748761 0.087237 -0.036166
v 1.748761 0.087237 -2.730162
v -5.430909 -0.007178 2.657829
v -5.430909 -0.007179 -0.036166
v -1.841074 -0.007179 -0.036166
v -1.841074 -0.007178 2.657829
v -5.430909 0.087237 2.657829
v -1.841074 0.087237 2.657829
v -1.841074 0.087237 -0.036166
v -5.430909 0.087237 -0.036166
v -1.841074 -0.007179 -0.036166
v -5.430909 -0.007179 -0.036166
v -5.430909 0.087237 -0.036166
v -1.841074 0.087237 -0.036166
v -5.430909 -0.007178 2.657829
v -1.841074 -0.007178 2.657829
v -1.841074 0.087237 2.657829
v -5.430909 0.087237 2.657829
v -1.841074 -0.007178 2.657829
v -1.841074 -0.007179 -0.036166
v -1.841074 0.087237 -0.036166
v -1.841074 0.087237 2.657829
v -5.430909 -0.007179 -0.036166
v -5.430909 -0.007178 2.657829
v -5.430909 0.087237 2.657829
v -5.430909 0.087237 -0.036166
v -1.841074 -0.007178 2.657829
v -1.841074 -0.007179 -0.036166
v 1.748761 -0.007179 -0.036166
v 1.748761 -0.007178 2.657829
v -1.841074 0.087237 2.657829
v 1.748761 0.087237 2.657829
v 1.748761 0.087237 -0.036166
v -1.841074 0.087237 -0.036166
v 1.748761 -0.007179 -0.036166
v -1.841074 -0.007179 -0.036166
v -1.841074 0.087237 -0.036166
v 1.748761 0.087237 -0.036166
v -1.841074 -0.007178 2.657829
v 1.748761 -0.007178 2.657829
v 1.748761 0.087237 2.657829
v -1.841074 0.087237 2.657829
v 1.748761 -0.007178 2.657829
v 1.748761 -0.007179 -0.036166
v 1.748761 0.087237 -0.036166
v 1.748761 0.087237 2.657829
v -1.841074 -0.007179 -0.036166
v -1.841074 -0.007178 2.657829
v -1.841074 0.087237 2.657829
v -1.841074 0.087237 -0.036166
v 1.748761 -0.007178 2.657829
v 1.748761 -0.007179 -0.036166
v 5.338596 -0.007179 -0.036166
v 5.338596 -0.007178 2.657829
v 1.748761 0.087237 2.657829
v 5.338596 0.087237 2.657829
v 5.338596 0.087237 -0.036166
v 1.748761 0.087237 -0.036166
v 5.338596 -0.007179 -0.036166
v 1.748761 -0.007179 -0.036166
v 1.748761 0.087237 -0.036166
v 5.338596 0.087237 -0.036166
v 1.748761 -0.007178 2.657829
v 5.338596 -0.007178 2.657829
v 5.338596 0.087237 2.657829
v 1.748761 0.087237 2.657829
v 5.338596 -0.007178 2.657829
v 5.338596 -0.007179 -0.036166
v 5.338596 0.087237 -0.036166
v 5.338596 0.087237 2.657829
v 1.748761 -0.007179 -0.036166
v 1.748761 -0.007178 2.657829
v 1.748761 0.087237 2.657829
v 1.748761 0.087237 -0.036166
vn -0.0000 -1.0000 -0.0000
vn -0.0000 1.0000 -0.0000
vn -0.0000 -0.0000 -1.0000
vn -0.0000 -0.0000 1.0000
vn 1.0000 -0.0000 -0.0000
vn -1.0000 -0.0000 -0.0000
vt 0.219129 0.219261
vt 0.219129 0.780739
vt 0.780270 0.780739
vt 0.780270 0.219261
vt 0.000100 0.999900
vt 0.999299 0.999900
vt 0.999299 0.000100
vt 0.000100 0.000100
vt 0.476883 0.111829
vt 0.476883 0.877800
vt 0.491992 0.877800
vt 0.491992 0.111829
vt 0.549951 0.872991
vt 0.549950 0.147763
vt 0.535645 0.147763
vt 0.535645 0.872991
vt 0.463937 0.881050
vt 0.463938 0.100476
vt 0.443421 0.100476
vt 0.443420 0.881049
vt 0.148768 0.886303
vt 0.148768 0.112794
vt 0.128436 0.112794
vt 0.128436 0.886303
vt 0.219129 0.219261
vt 0.219129 0.780739
vt 0.780270 0.780739
vt 0.780270 0.219261
vt 0.000100 0.999900
vt 0.999299 0.999900
vt 0.999299 0.000100
vt 0.000100 0.000100
vt 0.476883 0.111829
vt 0.476883 0.877800
vt 0.491992 0.877800
vt 0.491992 0.111829
vt 0.549951 0.872991
vt 0.549950 0.147763
vt 0.535645 0.147763
vt 0.535645 0.872991
vt 0.463937 0.881050
vt 0.463938 0.100476
vt 0.443421 0.100476
vt 0.443420 0.881049
vt 0.148768 0.886303
vt 0.148768 0.112794
vt 0.128436 0.112794
vt 0.128436 0.886303
vt 0.219129 0.219261
vt 0.219129 0.780739
vt 0.780270 0.780739
vt 0.780270 0.219261
vt 0.000100 0.999900
vt 0.999299 0.999900
vt 0.999299 0.000100
vt 0.000100 0.000100
vt 0.476883 0.111829
vt 0.476883 0.877800
vt 0.491992 0.877800
vt 0.491992 0.111829
vt 0.549951 0.872991
vt 0.549950 0.147763
vt 0.535645 0.147763
vt 0.535645 0.872991
vt 0.463937 0.881050
vt 0.463938 0.100476
vt 0.443421 0.100476
vt 0.443420 0.881049
vt 0.148768 0.886303
vt 0.148768 0.112794
vt 0.128436 0.112794
vt 0.128436 0.886303
vt 0.219129 0.219261
vt 0.219129 0.780739
vt 0.780270 0.780739
vt 0.780270 0.219261
vt 0.000100 0.999900
vt 0.999299 0.999900
vt 0.999299 0.000100
vt 0.000100 0.000100
vt 0.476883 0.111829
vt 0.476883 0.877800
vt 0.491992 0.877800
vt 0.491992 0.111829
vt 0.549951 0.872991
vt 0.549950 0.147763
vt 0.535645 0.147763
vt 0.535645 0.872991
vt 0.463937 0.881050
vt 0.463938 0.100476
vt 0.443421 0.100476
vt 0.443420 0.881049
vt 0.148768 0.886303
vt 0.148768 0.112794
vt 0.128436 0.112794
vt 0.128436 0.886303
vt 0.219129 0.219261
vt 0.219129 0.780739
vt 0.780270 0.780739
vt 0.780270 0.219261
vt 0.000100 0.999900
vt 0.999299 0.999900
vt 0.999299 0.000100
vt 0.000100 0.000100
vt 0.476883 0.111829
vt 0.476883 0.877800
vt 0.491992 0.877800
vt 0.491992 0.111829
vt 0.549951 0.872991
vt 0.549950 0.147763
vt 0.535645 0.147763
vt 0.535645 0.872991
vt 0.463937 0.881050
vt 0.463938 0.100476
vt 0.443421 0.100476
vt 0.443420 0.881049
vt 0.148768 0.886303
vt 0.148768 0.112794
vt 0.128436 0.112794
vt 0.128436 0.886303
vt 0.219129 0.219261
vt 0.219129 0.780739
vt 0.780270 0.780739
vt 0.780270 0.219261
vt 0.000100 0.999900
vt 0.999299 0.999900
vt 0.999299 0.000100
vt 0.000100 0.000100
vt 0.476883 0.111829
vt 0.476883 0.877800
vt 0.491992 0.877800
vt 0.491992 0.111829
vt 0.549951 0.872991
vt 0.549950 0.147763
vt 0.535645 0.147763
vt 0.535645 0.872991
vt 0.463937 0.881050
vt 0.463938 0.100476
vt 0.443421 0.100476
vt 0.443420 0.881049
vt 0.148768 0.886303
vt 0.148768 0.112794
vt 0.128436 0.112794
vt 0.128436 0.886303
s 1
usemtl Scene_-_Root.001
f 1/1/1 2/2/1 3/3/1
f 1/1/1 3/3/1 4/4/1
f 5/5/2 6/6/2 7/7/2
f 5/5/2 7/7/2 8/8/2
f 9/9/3 10/10/3 11/11/3
f 9/9/3 11/11/3 12/12/3
f 13/13/4 14/14/4 15/15/4
f 13/13/4 15/15/4 16/16/4
f 17/17/5 18/18/5 19/19/5
f 17/17/5 19/19/5 20/20/5
f 21/21/6 22/22/6 23/23/6
f 21/21/6 23/23/6 24/24/6
f 25/25/1 26/26/1 27/27/1
f 25/25/1 27/27/1 28/28/1
f 29/29/2 30/30/2 31/31/2
f 29/29/2 31/31/2 32/32/2
f 33/33/3 34/34/3 35/35/3
f 33/33/3 35/35/3 36/36/3
f 37/37/4 38/38/4 39/39/4
f 37/37/4 39/39/4 40/40/4
f 41/41/5 42/42/5 43/43/5
f 41/41/5 43/43/5 44/44/5
f 45/45/6 46/46/6 47/47/6
f 45/45/6 47/47/6 48/48/6
f 49/49/1 50/50/1 51/51/1
f 49/49/1 51/51/1 52/52/1
f 53/53/2 54/54/2 55/55/2
f 53/53/2 55/55/2 56/56/2
f 57/57/3 58/58/3 59/59/3
f 57/57/3 59/59/3 60/60/3
f 61/61/4 62/62/4 63/63/4
f 61/61/4 63/63/4 64/64/4
f 65/65/5 66/66/5 67/67/5
f 65/65/5 67/67/5 68/68/5
f 69/69/6 70/70/6 71/71/6
f 69/69/6 71/71/6 72/72/6
f 73/73/1 74/74/1 75/75/1
f 73/73/1 75/75/1 76/76/1
f 77/77/2 78/78/2 79/79/2
f 77/77/2 79/79/2 80/80/2
f 81/81/3 82/82/3 83/83/3
f 81/81/3 83/83/3 84/84/3
f 85/85/4 86/86/4 87/87/4
f 85/85/4 87/87/4 88/88/4
f 89/89/5 90/90/5 91/91/5
f 89/89/5 91/91/5 92/92/5
f 93/93/6 94/94/6 95/95/6
f 93/93/6 95/95/6 96/96/6
f 97/97/1 98/98/1 99/99/1
f 97/97/1 99/99/1 100/100/1
f 101/101/2 102/102/2 103/103/2
f 101/101/2 103/103/2 104/104/2
f 105/105/3 106/106/3 107/107/3
f 105/105/3 107/107/3 108/108/3
f 109/109/4 110/110/4 111/111/4
f 109/109/4 111/111/4 112/112/4
f 113/113/5 114/114/5 115/115/5
f 113/113/5 115/115/5 116/116/5
f 117/117/6 118/118/6 119/119/6
f 117/117/6 119/119/6 120/120/6
f 121/121/1 122/122/1 123/123/1
f 121/121/1 123/123/1 124/124/1
f 125/125/2 126/126/2 127/127/2
f 125/125/2 127/127/2 128/128/2
f 129/129/3 130/130/3 131/131/3
f 129/129/3 131/131/3 132/132/3
f 133/133/4 134/134/4 135/135/4
f 133/133/4 135/135/4 136/136/4
f 137/137/5 138/138/5 139/139/5
f 137/137/5 139/139/5 140/140/5
f 141/141/6 142/142/6 143/143/6
f 141/141/6 143/143/6 144/144/6
